#N canvas 783 308 791 545 10;
#N canvas 822 238 579 653 lightSaber 1;
#X obj 50 600 outlet~;
#X obj 117 193 noise~;
#X obj 52 547 *~;
#X obj 118 304 phasor~;
#X obj 117 332 -~ 0.5;
#X obj 200 292 phasor~;
#X obj 118 427 +~;
#X obj 200 324 -~ 0.5;
#X obj 254 293 phasor~;
#X obj 199 439 +~;
#X obj 374 317 tabosc4~;
#X msg 392 288 set rectWave;
#X obj 253 423 +~;
#X msg 183 538 \; rectWave sinesum 4096 1 0 0.333333 0 0.2 0 0.142857
0 0.111111 0 0.0909091 0 0.0769231 0 0.0666667 0 0.0588235 0 0.0526316
0 0.047619 \; rectWave normalize 1;
#X obj 452 497 table rectWave;
#X obj 51 31 inlet;
#X obj 312 290 phasor~;
#X obj 253 390 +~;
#X obj 313 323 -~ 0.5;
#X obj 255 324 -~ 0.5;
#X obj 183 501 loadbang;
#X obj 118 495 +~;
#X obj 118 219 lop~ 240;
#X obj 119 247 *~ 300;
#X obj 118 365 lop~ 300;
#X obj 15 368 inlet;
#X obj 436 255 loadbang;
#X text 289 190 fundamental frequency;
#X obj 169 247 *~ 0.49;
#X obj 118 275 +~;
#X obj 51 438 *~;
#X obj 51 80 line~;
#X obj 255 149 +~ 1;
#X obj 255 175 *~ 90.5;
#X obj 254 359 *~ 0.6;
#X obj 313 357 *~ 0.56;
#X obj 201 358 *~ 0.6;
#X obj 118 399 *~ 0.7;
#X obj 375 357 *~ 0.13;
#X obj 254 257 *~ 1.004;
#X obj 199 463 lop~ 200;
#X obj 312 255 *~ 0.99;
#X obj 373 255 *~ 1.02;
#X obj 255 124 *~ 35;
#X obj 52 347 min~ 1;
#X msg 51 52 \$1 50;
#X obj 52 293 +~ 0.3;
#X obj 52 250 *~ 100;
#X obj 51 574 *~ 3.14;
#X connect 1 0 22 0;
#X connect 2 0 48 0;
#X connect 3 0 4 0;
#X connect 4 0 24 0;
#X connect 5 0 7 0;
#X connect 6 0 21 0;
#X connect 7 0 36 0;
#X connect 8 0 19 0;
#X connect 9 0 40 0;
#X connect 10 0 38 0;
#X connect 11 0 10 0;
#X connect 12 0 9 1;
#X connect 15 0 45 0;
#X connect 16 0 18 0;
#X connect 17 0 12 0;
#X connect 18 0 35 0;
#X connect 19 0 34 0;
#X connect 20 0 13 0;
#X connect 21 0 2 1;
#X connect 22 0 23 0;
#X connect 23 0 29 0;
#X connect 24 0 37 0;
#X connect 25 0 30 1;
#X connect 26 0 11 0;
#X connect 28 0 29 1;
#X connect 29 0 3 0;
#X connect 30 0 2 0;
#X connect 31 0 43 0;
#X connect 31 0 47 0;
#X connect 32 0 33 0;
#X connect 33 0 28 0;
#X connect 33 0 41 0;
#X connect 33 0 42 0;
#X connect 33 0 39 0;
#X connect 33 0 5 0;
#X connect 34 0 17 0;
#X connect 35 0 17 1;
#X connect 36 0 9 0;
#X connect 37 0 6 0;
#X connect 38 0 12 1;
#X connect 39 0 8 0;
#X connect 40 0 21 1;
#X connect 41 0 16 0;
#X connect 42 0 10 0;
#X connect 43 0 32 0;
#X connect 44 0 30 0;
#X connect 45 0 31 0;
#X connect 46 0 44 0;
#X connect 47 0 46 0;
#X connect 48 0 0 0;
#X restore 128 294 pd lightSaber;
#X floatatom 110 264 5 0 0 0 - - -;
#X obj 50 366 dac~;
#N canvas 1450 66 450 530 velocityDetector 0;
#X obj 204 152 realtime;
#X obj 204 97 loadbang;
#X obj 36 292 outlet;
#X obj 36 200 abs;
#X obj 36 230 /;
#X obj 36 171 -;
#X obj 36 140 t f f;
#X floatatom 86 180 5 0 0 0 - - -;
#X msg 153 152 set \$1;
#X obj 86 205 sel, f 4;
#X msg 86 232 0;
#X obj 86 116 t b f f, f 8;
#X obj 36 50 t f f b b;
#X obj 86 151 delay 100;
#X obj 49 268 line 100;
#X obj 36 13 inlet;
#X connect 0 0 4 1;
#X connect 1 0 0 0;
#X connect 3 0 4 0;
#X connect 4 0 2 0;
#X connect 5 0 3 0;
#X connect 6 0 5 1;
#X connect 6 1 5 0;
#X connect 7 0 9 0;
#X connect 8 0 7 0;
#X connect 9 0 10 0;
#X connect 10 0 14 0;
#X connect 11 0 13 0;
#X connect 11 1 9 1;
#X connect 11 2 8 0;
#X connect 12 0 6 0;
#X connect 12 1 11 0;
#X connect 12 2 0 0;
#X connect 12 3 0 1;
#X connect 13 0 7 0;
#X connect 14 0 2 0;
#X connect 15 0 12 0;
#X restore 120 208 pd velocityDetector;
#X floatatom 211 266 5 0 0 0 - - -;
#X obj 49 100 receive fromGUI;
#X obj 49 126 route list;
#X obj 49 69 send toGUI;
#X obj 49 12 loadbang;
#X msg 49 41 list /Saber 0.5 0.5 \, /Output 0;
#X obj 69 211 unpack;
#N canvas 234 278 450 453 pan 1;
#X obj 49 38 inlet;
#X obj 127 36 inlet;
#X obj 161 166 inlet~;
#X obj 79 282 outlet~;
#X obj 150 281 outlet~;
#X obj 149 236 *~;
#X obj 79 236 *~;
#X text 131 19 stereo offset;
#X text 51 17 pan value;
#X floatatom 127 57 5 0 0 0 - - -;
#X floatatom 49 59 5 0 0 0 - - -;
#X obj 49 108 expr -$f1*$f2 + 0.5*$f2 + 0.5;
#X obj 233 108 expr $f1*$f2 - 0.5*$f2 + 0.5;
#X connect 0 0 10 0;
#X connect 1 0 9 0;
#X connect 2 0 5 1;
#X connect 2 0 6 1;
#X connect 5 0 4 0;
#X connect 6 0 3 0;
#X connect 9 0 11 1;
#X connect 9 0 12 1;
#X connect 10 0 11 0;
#X connect 10 0 12 0;
#X connect 11 0 6 0;
#X connect 12 0 5 0;
#X restore 49 323 pd pan;
#X obj 242 103 receive fromSystem;
#X obj 242 127 route list;
#N canvas 0 50 450 300 xySliderHandler 0;
#X obj 139 80 loadbang;
#X obj 56 53 inlet;
#X obj 56 79 unpack;
#X obj 56 106 pow 2;
#X obj 94 107 pow 2;
#X obj 56 133 +;
#X obj 56 156 sqrt;
#X obj 56 180 /;
#X msg 139 133 2;
#X obj 139 156 sqrt;
#X obj 56 212 outlet;
#X connect 0 0 8 0;
#X connect 1 0 2 0;
#X connect 2 0 3 0;
#X connect 2 1 4 0;
#X connect 3 0 5 0;
#X connect 4 0 5 1;
#X connect 5 0 6 0;
#X connect 6 0 7 0;
#X connect 7 0 10 0;
#X connect 8 0 9 0;
#X connect 9 0 7 1;
#X restore 120 184 pd xySliderHandler;
#X msg 313 239 list /accelVel \$1;
#X obj 313 276 send toGUI;
#X obj 242 150 route /page /tilts;
#N canvas 605 274 450 300 accelHandler 0;
#X obj 147 16 inlet;
#X obj 146 113 pow 2;
#X obj 195 113 pow 2;
#X obj 175 151 +;
#X obj 191 229 /;
#X obj 236 158 loadbang;
#X obj 191 264 outlet;
#X obj 236 202 sqrt;
#X obj 25 145 + 1;
#X obj 25 173 / 2;
#X msg 25 231 list /accelDisp \$1 \$2;
#X obj 25 202 pack;
#X obj 67 144 + 1;
#X obj 67 172 / 2;
#X obj 25 263 send toGUI;
#X msg 236 179 2;
#X obj 147 52 unpack f f;
#X connect 0 0 16 0;
#X connect 1 0 3 0;
#X connect 2 0 3 1;
#X connect 3 0 4 0;
#X connect 4 0 6 0;
#X connect 5 0 15 0;
#X connect 7 0 4 1;
#X connect 8 0 9 0;
#X connect 9 0 11 0;
#X connect 10 0 14 0;
#X connect 11 0 10 0;
#X connect 12 0 13 0;
#X connect 13 0 11 1;
#X connect 15 0 7 0;
#X connect 16 0 1 0;
#X connect 16 0 8 0;
#X connect 16 1 2 0;
#X connect 16 1 12 0;
#X restore 294 183 pd accelHandler;
#N canvas 104 624 450 300 selecter 0;
#X obj 266 45 inlet;
#X obj 200 46 inlet;
#X floatatom 144 124 5 0 0 0 - - -;
#X floatatom 142 183 5 0 0 0 - - -;
#X msg 196 145 set \$1;
#X msg 144 95 set \$1;
#X obj 201 96 t b f;
#X obj 142 221 outlet;
#X floatatom 264 121 5 0 0 0 - - -;
#X obj 326 45 inlet;
#X floatatom 265 186 5 0 0 0 - - -;
#X msg 325 145 set \$1;
#X obj 266 147 sel 1;
#X obj 327 95 t b f;
#X obj 142 148 sel 0;
#X msg 265 95 set \$1;
#X connect 0 0 5 0;
#X connect 0 0 15 0;
#X connect 1 0 6 0;
#X connect 2 0 14 0;
#X connect 3 0 7 0;
#X connect 4 0 3 0;
#X connect 5 0 2 0;
#X connect 6 0 2 0;
#X connect 6 1 4 0;
#X connect 8 0 12 0;
#X connect 9 0 13 0;
#X connect 10 0 7 0;
#X connect 11 0 10 0;
#X connect 12 0 10 0;
#X connect 13 0 8 0;
#X connect 13 1 11 0;
#X connect 14 0 3 0;
#X connect 15 0 8 0;
#X restore 211 241 pd selecter;
#X obj 274 213 / 200;
#X obj 49 150 route /stereo /Saber /Output;
#X connect 0 0 11 2;
#X connect 1 0 0 0;
#X connect 3 0 19 0;
#X connect 4 0 0 1;
#X connect 5 0 6 0;
#X connect 6 0 21 0;
#X connect 8 0 9 0;
#X connect 9 0 7 0;
#X connect 10 0 11 0;
#X connect 11 0 2 0;
#X connect 11 1 2 1;
#X connect 12 0 13 0;
#X connect 13 0 17 0;
#X connect 14 0 3 0;
#X connect 15 0 16 0;
#X connect 17 0 19 1;
#X connect 17 1 18 0;
#X connect 18 0 15 0;
#X connect 18 0 20 0;
#X connect 19 0 4 0;
#X connect 20 0 19 2;
#X connect 21 0 11 1;
#X connect 21 1 14 0;
#X connect 21 1 10 0;
#X connect 21 2 1 0;
